<?xml version="1.0" standalone="no"?><!-- Generator: Gravit.io --><svg xmlns="http://www.w3.org/2000/svg" xmlns:xlink="http://www.w3.org/1999/xlink" style="isolation:isolate" viewBox="0 0 128 128" width="128" height="128"><defs><clipPath id="_clipPath_mLwrh9LcIeK6jDutDMRfnum3POPKNBeB"><rect width="128" height="128"/></clipPath></defs><g clip-path="url(#_clipPath_mLwrh9LcIeK6jDutDMRfnum3POPKNBeB)"><radialGradient id="_rgradient_3" fx="50%" fy="50%" cx="50%" cy="50%" r="50%"><stop offset="0%" stop-opacity="1" style="stop-color:rgb(40,80,166)"/><stop offset="100%" stop-opacity="1" style="stop-color:rgb(22,44,92)"/></radialGradient><path d=" M 22.986 60.823 C 22.986 29.039 41.364 3.234 64 3.234 C 86.636 3.234 105.014 29.039 105.014 60.823 C 105.014 92.607 86.636 118.412 64 118.412 C 41.364 118.412 22.986 92.607 22.986 60.823 Z " fill="url(#_rgradient_3)" vector-effect="non-scaling-stroke" stroke-width="5" stroke="rgb(67,113,210)" stroke-linejoin="miter" stroke-linecap="square" stroke-miterlimit="3"/><g id="Group"><path d=" M 167.855 44.858 L 179.445 18.783 L 179.445 35.442 L 167.855 49.929 L 167.855 44.858 Z " fill="rgb(67,113,210)" vector-effect="non-scaling-stroke" stroke-width="5" stroke="rgb(67,113,210)" stroke-linejoin="round" stroke-linecap="round" stroke-miterlimit="3"/><path d=" M 167.855 44.858 L 156.266 18.783 L 156.266 35.442 L 167.855 49.929 L 167.855 44.858 Z " fill="rgb(67,113,210)" vector-effect="non-scaling-stroke" stroke-width="5" stroke="rgb(67,113,210)" stroke-linejoin="round" stroke-linecap="round" stroke-miterlimit="3"/><path d=" M 153.55 26.207 C 153.55 18.312 159.96 11.902 167.855 11.902 C 175.751 11.902 182.161 18.312 182.161 26.207 C 182.161 34.102 175.751 40.512 167.855 40.512 C 159.96 40.512 153.55 34.102 153.55 26.207 Z " fill="none" vector-effect="non-scaling-stroke" stroke-width="5" stroke="rgb(67,113,210)" stroke-linejoin="round" stroke-linecap="butt" stroke-miterlimit="3"/></g><radialGradient id="_rgradient_4" fx="50%" fy="50%" cx="50%" cy="50%" r="50%" gradientTransform="matrix(1.4904524552154872 -0.006354295598006232 0 1 -0.24660154682366525 0.35225093866258783)"><stop offset="0%" stop-opacity="1" style="stop-color:rgb(150,172,223)"/><stop offset="100%" stop-opacity="1" style="stop-color:rgb(67,113,210)"/></radialGradient><path d=" M 64 123.73 C 87.218 113.032 106.482 93.21 121.762 64.235 C 118.181 53.862 111.741 45.208 102.412 38.242 C 93.464 57.34 80.67 73.812 64 87.629 C 64 87.629 64 87.629 64 87.629 C 47.33 73.812 34.536 57.34 25.588 38.242 C 16.259 45.208 9.819 53.862 6.238 64.235 C 21.518 93.21 40.782 113.032 64 123.73 C 64 123.73 64 123.73 64 123.73 Z " fill="url(#_rgradient_4)" vector-effect="non-scaling-stroke" stroke-width="5" stroke="rgb(67,113,210)" stroke-linejoin="miter" stroke-linecap="square" stroke-miterlimit="3"/><radialGradient id="_rgradient_5" fx="50%" fy="50%" cx="50%" cy="50%" r="50%" gradientTransform="matrix(1.2011189728270297 -0.007512333575673139 -0.006159584476035867 1.5999187072870895 -0.09648749466327641 -0.06222070684053537)"><stop offset="0%" stop-opacity="1" style="stop-color:rgb(255,255,255)"/><stop offset="100%" stop-opacity="0.1" style="stop-color:rgb(255,255,255)"/></radialGradient><path d=" M 64 117.677 C 63.967 117.695 63.934 117.713 63.902 117.73 C 63.898 117.69 63.894 117.649 63.891 117.619 C 39.562 104.666 26.324 76.872 31.687 54.242 C 40.616 73.301 47.401 79.786 64 93.547 C 80.599 79.786 87.384 73.301 96.313 54.242 C 101.675 76.87 88.44 104.661 64.116 117.615 C 64.111 117.647 64.105 117.689 64.098 117.73 C 64.065 117.713 64.033 117.695 64 117.677 Z " fill="url(#_rgradient_5)" style="mix-blend-mode:overlay;"/><linearGradient id="_lgradient_1" x1="49.999999999999986%" y1="100%" x2="49.99999999999999%" y2="0%"><stop offset="12.173913043478262%" stop-opacity="1" style="stop-color:rgb(67,113,210)"/><stop offset="100%" stop-opacity="0" style="stop-color:rgb(39,75,153)"/></linearGradient><rect x="61.977" y="12.524" width="4.047" height="73.462" transform="matrix(1,0,0,1,0,0)" fill="url(#_lgradient_1)"/></g></svg>