<?xml version="1.0" standalone="no"?><!-- Generator: Gravit.io --><svg xmlns="http://www.w3.org/2000/svg" xmlns:xlink="http://www.w3.org/1999/xlink" style="isolation:isolate" viewBox="0 0 256 256" width="256" height="256"><defs><clipPath id="_clipPath_9oqVfPHnJe78SxgXfB7tHdfexgPA3BGI"><rect width="256" height="256"/></clipPath></defs><g clip-path="url(#_clipPath_9oqVfPHnJe78SxgXfB7tHdfexgPA3BGI)"><radialGradient id="_rgradient_8" fx="50%" fy="50%" cx="50%" cy="50%" r="50%"><stop offset="28.695652173913043%" stop-opacity="1" style="stop-color:rgb(15,30,108)"/><stop offset="44.34782608695652%" stop-opacity="1" style="stop-color:rgb(4,13,55)"/><stop offset="85.21739130434783%" stop-opacity="1" style="stop-color:rgb(15,30,108)"/></radialGradient><path d=" M 80.302 128 C 80.302 101.675 101.675 80.302 128 80.302 C 154.325 80.302 175.698 101.675 175.698 128 C 175.698 154.325 154.325 175.698 128 175.698 C 101.675 175.698 80.302 154.325 80.302 128 Z " fill="url(#_rgradient_8)" vector-effect="non-scaling-stroke" stroke-width="10" stroke="rgb(27,45,134)" stroke-linejoin="miter" stroke-linecap="square" stroke-miterlimit="3"/><radialGradient id="_rgradient_9" fx="50%" fy="50%" cx="50%" cy="50%" r="50%"><stop offset="78.69565217391305%" stop-opacity="0.5" style="stop-color:rgb(29,102,166)"/><stop offset="100%" stop-opacity="0.9" style="stop-color:rgb(60,200,255)"/></radialGradient><path d=" M 0 128 C 0 57.355 57.355 0 128 0 C 198.645 0 256 57.355 256 128 C 256 198.645 198.645 256 128 256 C 57.355 256 0 198.645 0 128 Z " fill="url(#_rgradient_9)"/><path d=" M 33.045 95.173 C 25.276 87.405 32.888 67.178 50.033 50.033 C 67.178 32.888 87.405 25.276 95.173 33.045 C 102.942 40.813 95.33 61.04 78.185 78.185 C 61.04 95.33 40.813 102.942 33.045 95.173 Z " fill="rgb(166,208,244)" fill-opacity="0.5"/></g></svg>