<?xml version="1.0" standalone="no"?><!-- Generator: Gravit.io --><svg xmlns="http://www.w3.org/2000/svg" xmlns:xlink="http://www.w3.org/1999/xlink" style="isolation:isolate" viewBox="0 0 256 256" width="256" height="256"><defs><clipPath id="_clipPath_A43cWVwCQU2Jiqoq0zqscRvN4ivwoHOS"><rect width="256" height="256"/></clipPath></defs><g clip-path="url(#_clipPath_A43cWVwCQU2Jiqoq0zqscRvN4ivwoHOS)"><radialGradient id="_rgradient_0" fx="50%" fy="50%" cx="50%" cy="50%" r="50%"><stop offset="90.43478260869566%" stop-opacity="1" style="stop-color:rgb(66,106,191)"/><stop offset="100%" stop-opacity="0" style="stop-color:rgb(56,87,153)"/></radialGradient><path d=" M 0 128 C 0 57.355 57.355 0 128 0 C 198.645 0 256 57.355 256 128 C 256 198.645 198.645 256 128 256 C 57.355 256 0 198.645 0 128 Z " fill="url(#_rgradient_0)"/><radialGradient id="_rgradient_1" fx="50%" fy="50%" cx="50%" cy="50%" r="50%"><stop offset="90.43478260869566%" stop-opacity="1" style="stop-color:rgb(175,201,255)"/><stop offset="100%" stop-opacity="1" style="stop-color:rgb(116,154,236)"/></radialGradient><path d=" M 9.186 128 C 9.186 62.425 62.425 9.186 128 9.186 C 193.575 9.186 246.814 62.425 246.814 128 C 246.814 193.575 193.575 246.814 128 246.814 C 62.425 246.814 9.186 193.575 9.186 128 Z " fill="url(#_rgradient_1)"/><radialGradient id="_rgradient_2" fx="50%" fy="50%" cx="50%" cy="50%" r="50%"><stop offset="90.43478260869566%" stop-opacity="1" style="stop-color:rgb(175,201,255)"/><stop offset="100%" stop-opacity="1" style="stop-color:rgb(116,154,236)"/></radialGradient><path d=" M 22.621 128 C 22.621 69.84 69.84 22.621 128 22.621 C 186.16 22.621 233.379 69.84 233.379 128 C 233.379 186.16 186.16 233.379 128 233.379 C 69.84 233.379 22.621 186.16 22.621 128 Z " fill="url(#_rgradient_2)"/><radialGradient id="_rgradient_3" fx="50%" fy="50%" cx="50%" cy="50%" r="50%"><stop offset="60%" stop-opacity="1" style="stop-color:rgb(20,45,98)"/><stop offset="100%" stop-opacity="1" style="stop-color:rgb(56,94,176)"/></radialGradient><path d=" M 37.621 128 C 37.621 78.118 78.118 37.621 128 37.621 C 177.882 37.621 218.379 78.118 218.379 128 C 218.379 177.882 177.882 218.379 128 218.379 C 78.118 218.379 37.621 177.882 37.621 128 Z " fill="url(#_rgradient_3)"/></g></svg>