<?xml version="1.0" standalone="no"?><!-- Generator: Gravit.io --><svg xmlns="http://www.w3.org/2000/svg" xmlns:xlink="http://www.w3.org/1999/xlink" style="isolation:isolate" viewBox="0 0 256 256" width="256" height="256"><defs><clipPath id="_clipPath_700fCZzMpWsUSg1uutdQ3hDeG4yINXB4"><rect width="256" height="256"/></clipPath></defs><g clip-path="url(#_clipPath_700fCZzMpWsUSg1uutdQ3hDeG4yINXB4)"><path d=" M 242.73 142.24 C 243.303 137.573 243.599 132.821 243.599 128 C 243.599 64.199 191.801 12.401 128 12.401 C 64.199 12.401 12.401 64.199 12.401 128 C 12.401 132.821 12.697 137.573 13.27 142.24 C 20.298 85.148 69.02 40.882 128 40.882 C 186.98 40.882 235.702 85.148 242.73 142.24 Z " fill="rgb(255,255,255)" fill-opacity="0.25"/><path d=" M 227.66 168.418 C 229.298 164.362 230.708 160.163 231.869 155.832 C 247.23 98.505 213.158 39.492 155.832 24.131 C 98.505 8.77 39.492 42.842 24.131 100.168 C 22.97 104.5 22.092 108.841 21.483 113.173 C 41.543 63.566 95.979 35.522 148.975 49.722 C 201.97 63.922 235.091 115.427 227.66 168.418 Z " fill="rgb(255,255,255)" fill-opacity="0.25"/><path d=" M 206.119 187.028 C 208.516 183.848 210.745 180.487 212.786 176.951 C 239.803 130.157 223.746 70.231 176.951 43.214 C 130.157 16.197 70.231 32.254 43.214 79.049 C 41.172 82.584 39.377 86.195 37.821 89.861 C 67.151 50.962 121.632 39.127 164.891 64.103 C 208.15 89.079 225.141 142.178 206.119 187.028 Z " fill="rgb(255,255,255)" fill-opacity="0.25"/><path d=" M 180.873 195.858 C 183.63 193.704 186.286 191.359 188.822 188.822 C 222.391 155.254 222.391 100.746 188.822 67.178 C 155.254 33.609 100.746 33.609 67.178 67.178 C 64.641 69.714 62.296 72.37 60.142 75.127 C 93.879 48.786 142.805 51.13 173.837 82.163 C 204.87 113.195 207.214 162.121 180.873 195.858 Z " fill="rgb(255,255,255)" fill-opacity="0.25"/><path d=" M 158.092 199.153 C 160.984 197.925 163.834 196.508 166.623 194.898 C 203.545 173.581 216.215 126.298 194.898 89.377 C 173.581 52.455 126.298 39.785 89.377 61.102 C 86.587 62.713 83.935 64.472 81.426 66.363 C 116.814 51.354 158.71 64.761 178.416 98.893 C 198.122 133.024 188.784 176.01 158.092 199.153 Z " fill="rgb(255,255,255)" fill-opacity="0.25"/><path d=" M 137.384 195.412 C 140.125 195.027 142.873 194.471 145.614 193.737 C 181.895 184.015 203.458 146.667 193.737 110.386 C 184.015 74.105 146.667 52.542 110.386 62.263 C 107.644 62.998 104.987 63.89 102.42 64.927 C 135.957 60.224 168.554 81.186 177.541 114.726 C 186.528 148.265 168.779 182.717 137.384 195.412 Z " fill="rgb(255,255,255)" fill-opacity="0.25"/><path d=" M 120.838 185.699 C 123.185 185.987 125.576 186.136 128 186.136 C 160.086 186.136 186.136 160.086 186.136 128 C 186.136 95.914 160.086 69.864 128 69.864 C 125.576 69.864 123.185 70.013 120.838 70.301 C 149.551 73.836 171.812 98.339 171.812 128 C 171.812 157.661 149.551 182.164 120.838 185.699 Z " fill="rgb(255,255,255)" fill-opacity="0.25"/><path d=" M 111.396 168.942 C 113.062 169.615 114.787 170.194 116.566 170.671 C 140.117 176.981 164.361 162.984 170.671 139.434 C 176.981 115.883 162.984 91.639 139.434 85.329 C 137.654 84.852 135.871 84.491 134.091 84.241 C 154.471 92.482 165.991 114.845 160.158 136.617 C 154.324 158.388 133.165 171.995 111.396 168.942 Z " fill="rgb(255,255,255)" fill-opacity="0.25"/><path d=" M 109.595 152.358 C 110.586 153.105 111.634 153.8 112.737 154.437 C 127.328 162.861 146.013 157.854 154.437 143.263 C 162.861 128.672 157.854 109.987 143.263 101.563 C 142.161 100.926 141.035 100.367 139.892 99.881 C 152.021 109.027 155.711 126.014 147.924 139.503 C 140.136 152.991 123.579 158.289 109.595 152.358 Z " fill="rgb(255,255,255)" fill-opacity="0.25"/><path d=" M 114.879 138.223 C 115.295 138.757 115.749 139.27 116.239 139.761 C 122.73 146.252 133.27 146.252 139.761 139.761 C 146.252 133.27 146.252 122.73 139.761 116.239 C 139.27 115.749 138.757 115.295 138.223 114.879 C 143.317 121.402 142.864 130.863 136.863 136.863 C 130.863 142.864 121.402 143.317 114.879 138.223 Z " fill="rgb(255,255,255)" fill-opacity="0.25"/></g></svg>