<?xml version="1.0" standalone="no"?><!-- Generator: Gravit.io --><svg xmlns="http://www.w3.org/2000/svg" xmlns:xlink="http://www.w3.org/1999/xlink" style="isolation:isolate" viewBox="0 0 256 128" width="256" height="128"><defs><clipPath id="_clipPath_KucOxyjTxdgV9vh4LPCBif0axlGAZgQT"><rect width="256" height="128"/></clipPath></defs><g clip-path="url(#_clipPath_KucOxyjTxdgV9vh4LPCBif0axlGAZgQT)"><radialGradient id="_rgradient_4" fx="50%" fy="50%" cx="50%" cy="50%" r="50%"><stop offset="0%" stop-opacity="1" style="stop-color:rgb(123,61,61)"/><stop offset="100%" stop-opacity="1" style="stop-color:rgb(70,27,27)"/></radialGradient><path d=" M 1.579 64 C 1.579 51.702 11.563 41.717 23.861 41.717 C 36.16 41.717 46.144 51.702 46.144 64 C 46.144 76.298 36.16 86.283 23.861 86.283 C 11.563 86.283 1.579 76.298 1.579 64 Z " fill="url(#_rgradient_4)"/><line x1="42.619" y1="54.689" x2="42.619" y2="73.311" vector-effect="non-scaling-stroke" stroke-width="2" stroke="rgb(106,58,58)" stroke-linejoin="miter" stroke-linecap="square" stroke-miterlimit="3"/><line x1="39.393" y1="54.689" x2="39.393" y2="73.311" vector-effect="non-scaling-stroke" stroke-width="1" stroke="rgb(106,58,58)" stroke-linejoin="miter" stroke-linecap="square" stroke-miterlimit="3"/><line x1="37.927" y1="54.689" x2="37.927" y2="73.311" vector-effect="non-scaling-stroke" stroke-width="1" stroke="rgb(106,58,58)" stroke-linejoin="miter" stroke-linecap="square" stroke-miterlimit="3"/><line x1="36.167" y1="54.689" x2="36.167" y2="73.311" vector-effect="non-scaling-stroke" stroke-width="1" stroke="rgb(106,58,58)" stroke-linejoin="miter" stroke-linecap="square" stroke-miterlimit="3"/><linearGradient id="_lgradient_3" x1="0%" y1="50%" x2="100%" y2="50%"><stop offset="0%" stop-opacity="1" style="stop-color:rgb(153,73,73)"/><stop offset="100%" stop-opacity="1" style="stop-color:rgb(238,107,107)"/></linearGradient><path d=" M 47.665 55.974 C 44.314 46.043 34.917 38.885 23.861 38.885 L 23.861 64 L 23.861 89.115 C 34.917 89.115 44.314 81.957 47.665 72.026 L 35.097 72.026 L 35.097 55.974 L 47.665 55.974 Z " fill="url(#_lgradient_3)"/><radialGradient id="_rgradient_5" fx="50%" fy="50%" cx="50%" cy="50%" r="50%"><stop offset="0%" stop-opacity="1" style="stop-color:rgb(123,61,61)"/><stop offset="100%" stop-opacity="1" style="stop-color:rgb(70,27,27)"/></radialGradient><path d=" M 254.421 64 C 254.421 76.298 244.437 86.283 232.139 86.283 C 219.84 86.283 209.856 76.298 209.856 64 C 209.856 51.702 219.84 41.717 232.139 41.717 C 244.437 41.717 254.421 51.702 254.421 64 Z " fill="url(#_rgradient_5)"/><line x1="213.381" y1="73.311" x2="213.381" y2="54.689" vector-effect="non-scaling-stroke" stroke-width="2" stroke="rgb(106,58,58)" stroke-linejoin="miter" stroke-linecap="square" stroke-miterlimit="3"/><line x1="216.607" y1="73.311" x2="216.607" y2="54.689" vector-effect="non-scaling-stroke" stroke-width="1" stroke="rgb(106,58,58)" stroke-linejoin="miter" stroke-linecap="square" stroke-miterlimit="3"/><line x1="218.073" y1="73.311" x2="218.073" y2="54.689" vector-effect="non-scaling-stroke" stroke-width="1" stroke="rgb(106,58,58)" stroke-linejoin="miter" stroke-linecap="square" stroke-miterlimit="3"/><line x1="219.833" y1="73.311" x2="219.833" y2="54.689" vector-effect="non-scaling-stroke" stroke-width="1" stroke="rgb(106,58,58)" stroke-linejoin="miter" stroke-linecap="square" stroke-miterlimit="3"/><linearGradient id="_lgradient_4" x1="0%" y1="50%" x2="100%" y2="50%"><stop offset="0%" stop-opacity="1" style="stop-color:rgb(153,73,73)"/><stop offset="100%" stop-opacity="1" style="stop-color:rgb(238,107,107)"/></linearGradient><path d=" M 208.335 72.026 C 211.686 81.957 221.083 89.115 232.139 89.115 L 232.139 64 L 232.139 38.885 C 221.083 38.885 211.686 46.043 208.335 55.974 L 220.903 55.974 L 220.903 72.026 L 208.335 72.026 Z " fill="url(#_lgradient_4)"/></g></svg>