<?xml version="1.0" standalone="no"?><!-- Generator: Gravit.io --><svg xmlns="http://www.w3.org/2000/svg" xmlns:xlink="http://www.w3.org/1999/xlink" style="isolation:isolate" viewBox="0 0 256 256" width="256" height="256"><defs><clipPath id="_clipPath_Tlxx7Is85tnBrYWRcQyNmpBFjwdFFJis"><rect width="256" height="256"/></clipPath></defs><g clip-path="url(#_clipPath_Tlxx7Is85tnBrYWRcQyNmpBFjwdFFJis)"><path d=" M 163.277 36.09 C 140.95 25.213 112.763 12.963 82.678 8.202 C 90.418 19.411 93.709 28.717 92.521 36.09 L 163.277 36.09 Z " fill="rgb(255,88,88)"/><path d=" M 89.928 217.431 C 112.254 228.308 140.441 240.559 170.526 245.319 C 162.786 234.11 159.495 224.804 160.683 217.431 L 89.928 217.431 Z " fill="rgb(255,88,88)"/><path d=" M 217.273 163.435 C 228.15 141.109 240.4 112.922 245.16 82.837 C 233.951 90.576 224.646 93.867 217.273 92.679 L 217.273 163.435 Z " fill="rgb(255,88,88)"/><path d=" M 35.931 90.086 C 25.055 112.413 12.804 140.599 8.044 170.684 C 19.253 162.945 28.559 159.654 35.931 160.842 L 35.931 90.086 Z " fill="rgb(255,88,88)"/><path d=" M 223.463 113.186 C 221.719 88.413 218.235 57.877 207.315 29.442 C 201.477 41.75 195.064 49.252 188.085 51.91 L 223.463 113.186 Z " fill="rgb(255,88,88)"/><path d=" M 29.742 140.335 C 31.485 165.109 34.97 195.644 45.889 224.079 C 51.727 211.772 58.141 204.269 65.119 201.611 L 29.742 140.335 Z " fill="rgb(255,88,88)"/><path d=" M 140.177 223.621 C 164.95 221.877 195.486 218.393 223.92 207.473 C 211.613 201.636 204.11 195.222 201.453 188.243 L 140.177 223.621 Z " fill="rgb(255,88,88)"/><path d=" M 113.028 29.9 C 88.254 31.644 57.718 35.128 29.284 46.048 C 41.591 51.885 49.094 58.299 51.751 65.278 L 113.028 29.9 Z " fill="rgb(255,88,88)"/><path d=" M 203.699 66.575 C 189.802 45.992 171.516 21.289 147.842 2.124 C 148.94 15.701 147.137 25.406 142.422 31.197 L 203.699 66.575 Z " fill="rgb(255,88,88)"/><path d=" M 49.506 186.947 C 63.403 207.529 81.688 232.232 105.362 251.397 C 104.264 237.82 106.067 228.115 110.782 222.324 L 49.506 186.947 Z " fill="rgb(255,88,88)"/><path d=" M 186.788 203.857 C 207.371 189.96 232.073 171.675 251.239 148.001 C 237.661 149.099 227.957 147.296 222.166 142.581 L 186.788 203.857 Z " fill="rgb(255,88,88)"/><path d=" M 66.416 49.664 C 45.833 63.561 21.131 81.846 1.966 105.521 C 15.543 104.422 25.247 106.225 31.038 110.94 L 66.416 49.664 Z " fill="rgb(255,88,88)"/><radialGradient id="_rgradient_3" fx="50%" fy="50%" cx="50%" cy="50%" r="50%"><stop offset="0%" stop-opacity="1" style="stop-color:rgb(230,84,84)"/><stop offset="71.73913043478261%" stop-opacity="1" style="stop-color:rgb(221,51,51)"/><stop offset="83.47826086956522%" stop-opacity="1" style="stop-color:rgb(255,81,81)"/><stop offset="90.43478260869566%" stop-opacity="1" style="stop-color:rgb(210,64,64)"/><stop offset="96.08695652173913%" stop-opacity="1" style="stop-color:rgb(255,88,88)"/></radialGradient><path d=" M 29.5 128 C 29.5 73.636 73.636 29.5 128 29.5 C 182.364 29.5 226.5 73.636 226.5 128 C 226.5 182.364 182.364 226.5 128 226.5 C 73.636 226.5 29.5 182.364 29.5 128 Z " fill="url(#_rgradient_3)"/></g></svg>