<?xml version="1.0" standalone="no"?><!-- Generator: Gravit.io --><svg xmlns="http://www.w3.org/2000/svg" xmlns:xlink="http://www.w3.org/1999/xlink" style="isolation:isolate" viewBox="0 0 256 256" width="256" height="256"><defs><clipPath id="_clipPath_LZP9eeJStLhcHRP49tBdrKjLbVtjS6h3"><rect width="256" height="256"/></clipPath></defs><g clip-path="url(#_clipPath_LZP9eeJStLhcHRP49tBdrKjLbVtjS6h3)"><linearGradient id="_lgradient_37" x1="49.999999999999986%" y1="100%" x2="49.99999999999999%" y2="0%"><stop offset="0%" stop-opacity="1" style="stop-color:rgb(39,55,98)"/><stop offset="34.78260869565217%" stop-opacity="1" style="stop-color:rgb(48,69,125)"/><stop offset="62.60869565217392%" stop-opacity="1" style="stop-color:rgb(48,69,125)"/><stop offset="100%" stop-opacity="1" style="stop-color:rgb(39,55,98)"/></linearGradient><rect x="20.226" y="106.717" width="215.547" height="42.566" transform="matrix(1,0,0,1,0,0)" fill="url(#_lgradient_37)"/><linearGradient id="_lgradient_38" x1="50%" y1="100%" x2="50.000000000000014%" y2="0%"><stop offset="0%" stop-opacity="1" style="stop-color:rgb(39,55,98)"/><stop offset="34.78260869565217%" stop-opacity="1" style="stop-color:rgb(48,69,125)"/><stop offset="62.60869565217392%" stop-opacity="1" style="stop-color:rgb(48,69,125)"/><stop offset="100%" stop-opacity="1" style="stop-color:rgb(39,55,98)"/></linearGradient><rect x="44.394" y="205.847" width="167.213" height="31.279" transform="matrix(-1,0,0,-1,256,442.972)" fill="url(#_lgradient_38)"/><linearGradient id="_lgradient_39" x1="49.999999999999986%" y1="100%" x2="49.99999999999999%" y2="0%"><stop offset="0%" stop-opacity="1" style="stop-color:rgb(118,132,164)"/><stop offset="19.130434782608695%" stop-opacity="1" style="stop-color:rgb(167,179,206)"/><stop offset="80%" stop-opacity="1" style="stop-color:rgb(167,179,206)"/><stop offset="100%" stop-opacity="1" style="stop-color:rgb(118,132,164)"/></linearGradient><rect x="9.057" y="97.001" width="25.358" height="60.226" transform="matrix(1,0,0,1,0,0)" fill="url(#_lgradient_39)"/><linearGradient id="_lgradient_40" x1="50%" y1="100%" x2="50.000000000000014%" y2="0%"><stop offset="0%" stop-opacity="1" style="stop-color:rgb(118,132,164)"/><stop offset="19.130434782608695%" stop-opacity="1" style="stop-color:rgb(167,179,206)"/><stop offset="80%" stop-opacity="1" style="stop-color:rgb(167,179,206)"/><stop offset="100%" stop-opacity="1" style="stop-color:rgb(118,132,164)"/></linearGradient><rect x="221.585" y="97.001" width="25.358" height="60.226" transform="matrix(1,0,0,1,0,0)" fill="url(#_lgradient_40)"/><linearGradient id="_lgradient_41" x1="49.999999999999986%" y1="100%" x2="49.99999999999999%" y2="0%"><stop offset="0%" stop-opacity="1" style="stop-color:rgb(251,130,130)"/><stop offset="49.130434782608695%" stop-opacity="1" style="stop-color:rgb(255,198,198)"/><stop offset="100%" stop-opacity="1" style="stop-color:rgb(251,130,130)"/></linearGradient><rect x="50.267" y="106.717" width="16.667" height="42.566" transform="matrix(1,0,0,1,0,0)" fill="url(#_lgradient_41)"/><linearGradient id="_lgradient_42" x1="49.999999999999986%" y1="100%" x2="49.99999999999999%" y2="0%"><stop offset="0%" stop-opacity="1" style="stop-color:rgb(251,130,130)"/><stop offset="49.130434782608695%" stop-opacity="1" style="stop-color:rgb(255,198,198)"/><stop offset="100%" stop-opacity="1" style="stop-color:rgb(251,130,130)"/></linearGradient><rect x="189.067" y="106.717" width="16.667" height="42.566" transform="matrix(-1,0,0,-1,394.8,256)" fill="url(#_lgradient_42)"/><linearGradient id="_lgradient_43" x1="49.999999999999986%" y1="100%" x2="49.99999999999999%" y2="0%"><stop offset="0%" stop-opacity="1" style="stop-color:rgb(251,130,130)"/><stop offset="49.130434782608695%" stop-opacity="1" style="stop-color:rgb(255,198,198)"/><stop offset="100%" stop-opacity="1" style="stop-color:rgb(251,130,130)"/></linearGradient><rect x="36.06" y="200.203" width="16.667" height="42.566" transform="matrix(1,0,0,1,0,0)" fill="url(#_lgradient_43)"/><linearGradient id="_lgradient_44" x1="49.999999999999986%" y1="100%" x2="49.99999999999999%" y2="0%"><stop offset="0%" stop-opacity="1" style="stop-color:rgb(251,130,130)"/><stop offset="49.130434782608695%" stop-opacity="1" style="stop-color:rgb(255,198,198)"/><stop offset="100%" stop-opacity="1" style="stop-color:rgb(251,130,130)"/></linearGradient><rect x="203.273" y="200.203" width="16.667" height="42.566" transform="matrix(1,0,0,1,0,0)" fill="url(#_lgradient_44)"/><linearGradient id="_lgradient_45" x1="49.999999999999986%" y1="100%" x2="49.99999999999999%" y2="0%"><stop offset="0%" stop-opacity="1" style="stop-color:rgb(113,122,166)"/><stop offset="50.8695652173913%" stop-opacity="1" style="stop-color:rgb(163,171,210)"/><stop offset="100%" stop-opacity="1" style="stop-color:rgb(113,122,166)"/></linearGradient><rect x="109.967" y="101.727" width="36.066" height="52.546" transform="matrix(1,0,0,1,0,0)" fill="url(#_lgradient_45)"/><linearGradient id="_lgradient_46" x1="50%" y1="100%" x2="50.000000000000014%" y2="0%"><stop offset="0%" stop-opacity="1" style="stop-color:rgb(113,122,166)"/><stop offset="50.8695652173913%" stop-opacity="1" style="stop-color:rgb(163,171,210)"/><stop offset="100%" stop-opacity="1" style="stop-color:rgb(113,122,166)"/></linearGradient><rect x="109.967" y="203.631" width="36.066" height="35.71" transform="matrix(-1,0,0,-1,256,442.972)" fill="url(#_lgradient_46)"/><linearGradient id="_lgradient_47" x1="5.551115123125783e-15%" y1="50%" x2="100%" y2="50%"><stop offset="0%" stop-opacity="1" style="stop-color:rgb(79,87,130)"/><stop offset="50.43478260869565%" stop-opacity="1" style="stop-color:rgb(126,134,183)"/><stop offset="100%" stop-opacity="1" style="stop-color:rgb(79,87,130)"/></linearGradient><path d=" M 142.133 203.631 C 132.792 211.03 123.36 211.02 113.867 203.631 L 113.867 154.273 C 123.76 148.284 133.172 148.274 142.133 154.273 L 142.133 203.631 Z " fill="url(#_lgradient_47)"/></g></svg>