<?xml version="1.0" standalone="no"?><!-- Generator: Gravit.io --><svg xmlns="http://www.w3.org/2000/svg" xmlns:xlink="http://www.w3.org/1999/xlink" style="isolation:isolate" viewBox="0 0 256 256" width="256" height="256"><defs><clipPath id="_clipPath_IkJyraQVPxQoNMO7zEpQNdozfPjxeHfv"><rect width="256" height="256"/></clipPath></defs><g clip-path="url(#_clipPath_IkJyraQVPxQoNMO7zEpQNdozfPjxeHfv)"><polygon points="128,233.66,53.287,202.713,22.34,128,53.287,53.287,128,22.34,202.713,53.287,233.66,128,202.713,202.713" fill="rgb(85,14,14)"/><polygon points="128,222.518,61.166,194.834,33.482,128,61.166,61.166,128,33.482,194.834,61.166,222.518,128,194.834,194.834" fill="rgb(195,62,62)"/><path d=" M 128 33.482 L 128 54.557 L 76.068 76.068 L 61.166 61.166 L 128 33.482 Z " fill="rgb(255,143,143)"/><path d=" M 128 222.518 L 128 201.443 L 179.932 179.932 L 194.834 194.834 L 128 222.518 Z " fill="rgb(132,36,36)"/><path d=" M 194.834 61.166 L 179.932 76.068 L 128 54.557 L 128 33.482 L 194.834 61.166 Z " fill="rgb(225,97,97)"/><path d=" M 61.166 194.834 L 76.068 179.932 L 128 201.443 L 128 222.518 L 61.166 194.834 Z " fill="rgb(166,48,48)"/><path d=" M 61.166 61.166 L 76.068 76.068 L 54.557 128 L 33.482 128 L 61.166 61.166 Z " fill="rgb(225,97,97)"/><path d=" M 194.834 194.834 L 179.932 179.932 L 201.443 128 L 222.518 128 L 194.834 194.834 Z " fill="rgb(166,48,48)"/><path d=" M 158.099 99.942 C 165.805 107.648 170.574 118.292 170.574 130.04 C 170.574 153.539 151.497 172.615 128 172.615 C 104.503 172.615 85.426 153.539 85.426 130.04 C 85.426 118.292 90.195 107.648 97.901 99.942" fill="none" vector-effect="non-scaling-stroke" stroke-width="15" stroke="rgb(85,14,14)" stroke-linejoin="miter" stroke-linecap="round" stroke-miterlimit="3"/><line x1="128" y1="83.385" x2="128" y2="134.626" vector-effect="non-scaling-stroke" stroke-width="15" stroke="rgb(85,14,14)" stroke-linejoin="miter" stroke-linecap="round" stroke-miterlimit="3"/></g></svg>