<?xml version="1.0" standalone="no"?><!-- Generator: Gravit.io --><svg xmlns="http://www.w3.org/2000/svg" xmlns:xlink="http://www.w3.org/1999/xlink" style="isolation:isolate" viewBox="0 0 256 256" width="256" height="256"><defs><clipPath id="_clipPath_qg8zJmZnuFVHYVcIGhxLG1FXl6ZG6VuY"><rect width="256" height="256"/></clipPath></defs><g clip-path="url(#_clipPath_qg8zJmZnuFVHYVcIGhxLG1FXl6ZG6VuY)"><rect x="29.838" y="29.838" width="196.324" height="196.324" transform="matrix(1,0,0,1,0,0)" fill="rgb(14,16,85)"/><rect x="39.722" y="39.722" width="176.556" height="176.556" transform="matrix(1,0,0,1,0,0)" fill="rgb(32,77,191)"/><rect x="39.722" y="39.722" width="30.9" height="176.556" transform="matrix(1,0,0,1,0,0)" fill="rgb(51,102,230)"/><rect x="185.378" y="39.722" width="30.9" height="176.556" transform="matrix(1,0,0,1,0,0)" fill="rgb(23,58,149)"/><path d=" M 138.629 39.722 L 39.722 39.722 L 70.622 70.622 L 138.629 70.622 L 138.629 39.722 Z " fill="rgb(89,128,227)"/><path d=" M 117.371 39.722 L 216.278 39.722 L 185.378 70.622 L 117.371 70.622 L 117.371 39.722 Z " fill="rgb(89,128,227)"/><path d=" M 117.371 216.278 L 216.278 216.278 L 185.378 185.378 L 117.371 185.378 L 117.371 216.278 Z " fill="rgb(22,47,113)"/><path d=" M 138.629 216.278 L 39.722 216.278 L 70.622 185.378 L 138.629 185.378 L 138.629 216.278 Z " fill="rgb(22,47,113)"/><path d=" M 158.099 97.901 C 165.805 105.608 170.574 116.251 170.574 128 C 170.574 151.499 151.497 170.574 128 170.574 C 104.503 170.574 85.426 151.499 85.426 128 C 85.426 116.251 90.195 105.608 97.901 97.901" fill="none" vector-effect="non-scaling-stroke" stroke-width="15" stroke="rgb(14,16,85)" stroke-linejoin="miter" stroke-linecap="round" stroke-miterlimit="3"/><line x1="128" y1="81.345" x2="128" y2="132.585" vector-effect="non-scaling-stroke" stroke-width="15" stroke="rgb(14,16,85)" stroke-linejoin="miter" stroke-linecap="round" stroke-miterlimit="3"/></g></svg>