<?xml version="1.0" standalone="no"?><!-- Generator: Gravit.io --><svg xmlns="http://www.w3.org/2000/svg" xmlns:xlink="http://www.w3.org/1999/xlink" style="isolation:isolate" viewBox="0 0 256 256" width="256" height="256"><defs><clipPath id="_clipPath_FUHRgDXkVdKMAGbejqGUaapocGZ2yyhC"><rect width="256" height="256"/></clipPath></defs><g clip-path="url(#_clipPath_FUHRgDXkVdKMAGbejqGUaapocGZ2yyhC)"><linearGradient id="_lgradient_30" x1="49.999999999999986%" y1="100%" x2="49.99999999999999%" y2="0%"><stop offset="0%" stop-opacity="1" style="stop-color:rgb(39,55,98)"/><stop offset="34.78260869565217%" stop-opacity="1" style="stop-color:rgb(48,69,125)"/><stop offset="62.60869565217392%" stop-opacity="1" style="stop-color:rgb(48,69,125)"/><stop offset="100%" stop-opacity="1" style="stop-color:rgb(39,55,98)"/></linearGradient><rect x="20.226" y="106.717" width="215.547" height="42.566" transform="matrix(1,0,0,1,0,0)" fill="url(#_lgradient_30)"/><linearGradient id="_lgradient_31" x1="50%" y1="100%" x2="50.000000000000014%" y2="0%"><stop offset="0%" stop-opacity="1" style="stop-color:rgb(39,55,98)"/><stop offset="34.78260869565217%" stop-opacity="1" style="stop-color:rgb(48,69,125)"/><stop offset="62.60869565217392%" stop-opacity="1" style="stop-color:rgb(48,69,125)"/><stop offset="100%" stop-opacity="1" style="stop-color:rgb(39,55,98)"/></linearGradient><rect x="44.394" y="18.874" width="167.213" height="31.279" transform="matrix(1,0,0,1,0,0)" fill="url(#_lgradient_31)"/><linearGradient id="_lgradient_32" x1="49.999999999999986%" y1="100%" x2="49.99999999999999%" y2="0%"><stop offset="0%" stop-opacity="1" style="stop-color:rgb(118,132,164)"/><stop offset="19.130434782608695%" stop-opacity="1" style="stop-color:rgb(167,179,206)"/><stop offset="80%" stop-opacity="1" style="stop-color:rgb(167,179,206)"/><stop offset="100%" stop-opacity="1" style="stop-color:rgb(118,132,164)"/></linearGradient><rect x="9.057" y="97.001" width="25.358" height="60.226" transform="matrix(1,0,0,1,0,0)" fill="url(#_lgradient_32)"/><linearGradient id="_lgradient_33" x1="50%" y1="100%" x2="50.000000000000014%" y2="0%"><stop offset="0%" stop-opacity="1" style="stop-color:rgb(118,132,164)"/><stop offset="19.130434782608695%" stop-opacity="1" style="stop-color:rgb(167,179,206)"/><stop offset="80%" stop-opacity="1" style="stop-color:rgb(167,179,206)"/><stop offset="100%" stop-opacity="1" style="stop-color:rgb(118,132,164)"/></linearGradient><rect x="221.585" y="97.001" width="25.358" height="60.226" transform="matrix(1,0,0,1,0,0)" fill="url(#_lgradient_33)"/><rect x="50.267" y="106.717" width="16.667" height="42.566" transform="matrix(1,0,0,1,0,0)" fill="rgb(13,20,53)"/><rect x="189.067" y="106.717" width="16.667" height="42.566" transform="matrix(-1,0,0,-1,394.8,256)" fill="rgb(13,20,53)"/><rect x="203.273" y="13.231" width="16.667" height="42.566" transform="matrix(-1,0,0,-1,423.213,69.028)" fill="rgb(13,20,53)"/><rect x="36.06" y="13.231" width="16.667" height="42.566" transform="matrix(-1,0,0,-1,88.787,69.028)" fill="rgb(13,20,53)"/><linearGradient id="_lgradient_34" x1="49.999999999999986%" y1="100%" x2="49.99999999999999%" y2="0%"><stop offset="0%" stop-opacity="1" style="stop-color:rgb(113,122,166)"/><stop offset="50.8695652173913%" stop-opacity="1" style="stop-color:rgb(163,171,210)"/><stop offset="100%" stop-opacity="1" style="stop-color:rgb(113,122,166)"/></linearGradient><rect x="109.967" y="101.727" width="36.066" height="52.546" transform="matrix(1,0,0,1,0,0)" fill="url(#_lgradient_34)"/><linearGradient id="_lgradient_35" x1="50%" y1="100%" x2="50.000000000000014%" y2="0%"><stop offset="0%" stop-opacity="1" style="stop-color:rgb(113,122,166)"/><stop offset="50.8695652173913%" stop-opacity="1" style="stop-color:rgb(163,171,210)"/><stop offset="100%" stop-opacity="1" style="stop-color:rgb(113,122,166)"/></linearGradient><rect x="109.967" y="16.659" width="36.066" height="35.71" transform="matrix(1,0,0,1,0,0)" fill="url(#_lgradient_35)"/><linearGradient id="_lgradient_36" x1="5.551115123125783e-15%" y1="50%" x2="100%" y2="50%"><stop offset="0%" stop-opacity="1" style="stop-color:rgb(79,87,130)"/><stop offset="50.43478260869565%" stop-opacity="1" style="stop-color:rgb(126,134,183)"/><stop offset="100%" stop-opacity="1" style="stop-color:rgb(79,87,130)"/></linearGradient><path d=" M 113.867 52.369 C 123.208 44.97 132.64 44.98 142.133 52.369 L 142.133 101.727 C 132.24 107.716 122.828 107.726 113.867 101.727 L 113.867 52.369 Z " fill="url(#_lgradient_36)"/></g></svg>