<?xml version="1.0" standalone="no"?><!-- Generator: Gravit.io --><svg xmlns="http://www.w3.org/2000/svg" xmlns:xlink="http://www.w3.org/1999/xlink" style="isolation:isolate" viewBox="0 0 256 256" width="256" height="256"><defs><clipPath id="_clipPath_zILY4aMoRT8vnGCHTMHYgXjZdgTHu4Bb"><rect width="256" height="256"/></clipPath></defs><g clip-path="url(#_clipPath_zILY4aMoRT8vnGCHTMHYgXjZdgTHu4Bb)"><rect x="30.712" y="11.557" width="194.575" height="220.886" transform="matrix(1,0,0,1,0,0)" fill="rgb(29,40,62)"/><rect x="36" y="26.575" width="184" height="190.85" transform="matrix(1,0,0,1,0,0)" fill="rgb(128,142,172)"/><linearGradient id="_lgradient_0" x1="50.000000000000014%" y1="100%" x2="49.99999999999999%" y2="0%"><stop offset="0%" stop-opacity="1" style="stop-color:rgb(128,142,172)"/><stop offset="100%" stop-opacity="1" style="stop-color:rgb(87,98,121)"/></linearGradient><rect x="36" y="16.818" width="184" height="17.182" transform="matrix(1,0,0,1,0,0)" fill="url(#_lgradient_0)"/><linearGradient id="_lgradient_1" x1="49.999999999999986%" y1="1.1102230246251565e-14%" x2="50.00000000000002%" y2="100%"><stop offset="0%" stop-opacity="1" style="stop-color:rgb(128,142,172)"/><stop offset="100%" stop-opacity="1" style="stop-color:rgb(87,98,121)"/></linearGradient><rect x="36" y="210" width="184" height="17.182" transform="matrix(1,0,0,1,0,0)" fill="url(#_lgradient_1)"/><rect x="43.864" y="145.507" width="168.271" height="45.932" transform="matrix(1,0,0,1,0,0)" fill="rgb(255,208,208)"/><rect x="47.68" y="149.77" width="160.64" height="37.407" transform="matrix(1,0,0,1,0,0)" fill="rgb(9,35,55)"/><radialGradient id="_rgradient_2" fx="50%" fy="50%" cx="50%" cy="50%" r="50%"><stop offset="69.56521739130434%" stop-opacity="1" style="stop-color:rgb(177,189,217)"/><stop offset="100%" stop-opacity="1" style="stop-color:rgb(103,115,140)"/></radialGradient><path d=" M 43.864 77.404 C 43.864 63.67 55.015 52.519 68.749 52.519 C 82.484 52.519 93.635 63.67 93.635 77.404 C 93.635 91.139 82.484 102.289 68.749 102.289 C 55.015 102.289 43.864 91.139 43.864 77.404 Z " fill="url(#_rgradient_2)"/><radialGradient id="_rgradient_3" fx="50%" fy="50%" cx="50%" cy="50%" r="50%"><stop offset="34.78260869565217%" stop-opacity="1" style="stop-color:rgb(255,186,175)"/><stop offset="99.56521739130434%" stop-opacity="1" style="stop-color:rgb(213,105,105)"/></radialGradient><path d=" M 50.713 77.404 C 50.713 67.45 58.795 59.368 68.749 59.368 C 78.704 59.368 86.786 67.45 86.786 77.404 C 86.786 87.358 78.704 95.44 68.749 95.44 C 58.795 95.44 50.713 87.358 50.713 77.404 Z " fill="url(#_rgradient_3)"/><path d=" M 55.952 74.972 C 54.327 73.347 55.353 69.684 58.241 66.796 C 61.129 63.909 64.792 62.883 66.416 64.507 C 68.04 66.132 67.015 69.795 64.127 72.683 C 61.239 75.57 57.576 76.596 55.952 74.972 Z " fill="rgb(249,208,202)"/><radialGradient id="_rgradient_4" fx="50%" fy="50%" cx="50%" cy="50%" r="50%"><stop offset="69.56521739130434%" stop-opacity="1" style="stop-color:rgb(177,189,217)"/><stop offset="100%" stop-opacity="1" style="stop-color:rgb(103,115,140)"/></radialGradient><path d=" M 97.51 77.404 C 97.51 63.67 108.661 52.519 122.395 52.519 C 136.13 52.519 147.28 63.67 147.28 77.404 C 147.28 91.139 136.13 102.289 122.395 102.289 C 108.661 102.289 97.51 91.139 97.51 77.404 Z " fill="url(#_rgradient_4)"/><radialGradient id="_rgradient_5" fx="50%" fy="50%" cx="50%" cy="50%" r="50%"><stop offset="34.78260869565217%" stop-opacity="1" style="stop-color:rgb(255,186,175)"/><stop offset="99.56521739130434%" stop-opacity="1" style="stop-color:rgb(213,105,105)"/></radialGradient><path d=" M 104.359 77.404 C 104.359 67.45 112.441 59.368 122.395 59.368 C 132.35 59.368 140.431 67.45 140.431 77.404 C 140.431 87.358 132.35 95.44 122.395 95.44 C 112.441 95.44 104.359 87.358 104.359 77.404 Z " fill="url(#_rgradient_5)"/><path d=" M 109.598 74.972 C 107.973 73.347 108.999 69.684 111.887 66.796 C 114.774 63.909 118.438 62.883 120.062 64.507 C 121.686 66.132 120.661 69.795 117.773 72.683 C 114.885 75.57 111.222 76.596 109.598 74.972 Z " fill="rgb(249,208,202)"/><radialGradient id="_rgradient_6" fx="50%" fy="50%" cx="50%" cy="50%" r="50%"><stop offset="69.56521739130434%" stop-opacity="1" style="stop-color:rgb(177,189,217)"/><stop offset="100%" stop-opacity="1" style="stop-color:rgb(103,115,140)"/></radialGradient><path d=" M 150.693 77.404 C 150.693 63.67 161.844 52.519 175.579 52.519 C 189.313 52.519 200.464 63.67 200.464 77.404 C 200.464 91.139 189.313 102.289 175.579 102.289 C 161.844 102.289 150.693 91.139 150.693 77.404 Z " fill="url(#_rgradient_6)"/><radialGradient id="_rgradient_7" fx="50%" fy="50%" cx="50%" cy="50%" r="50%"><stop offset="34.78260869565217%" stop-opacity="1" style="stop-color:rgb(136,63,52)"/><stop offset="100%" stop-opacity="1" style="stop-color:rgb(51,11,11)"/></radialGradient><path d=" M 157.543 77.404 C 157.543 67.45 165.624 59.368 175.579 59.368 C 185.533 59.368 193.615 67.45 193.615 77.404 C 193.615 87.358 185.533 95.44 175.579 95.44 C 165.624 95.44 157.543 87.358 157.543 77.404 Z " fill="url(#_rgradient_7)"/><path d=" M 162.781 74.972 C 161.157 73.347 162.182 69.684 165.07 66.796 C 167.958 63.909 171.621 62.883 173.245 64.507 C 174.87 66.132 173.844 69.795 170.956 72.683 C 168.068 75.57 164.405 76.596 162.781 74.972 Z " fill="rgb(134,94,88)"/><rect x="43.864" y="109.333" width="114.536" height="6.667" transform="matrix(1,0,0,1,0,0)" fill="rgb(98,110,134)"/><rect x="43.864" y="118.667" width="81.536" height="6.667" transform="matrix(1,0,0,1,0,0)" fill="rgb(98,110,134)"/><rect x="130.864" y="118.667" width="40.869" height="6.667" transform="matrix(1,0,0,1,0,0)" fill="rgb(98,110,134)"/><rect x="48.315" y="38.333" width="40.869" height="6.667" transform="matrix(1,0,0,1,0,0)" fill="rgb(98,110,134)"/><rect x="109.057" y="38.333" width="26.676" height="6.667" transform="matrix(1,0,0,1,0,0)" fill="rgb(98,110,134)"/><rect x="153.345" y="38.333" width="13.343" height="6.667" transform="matrix(1,0,0,1,0,0)" fill="rgb(98,110,134)"/><rect x="171.345" y="38.333" width="23.343" height="6.667" transform="matrix(1,0,0,1,0,0)" fill="rgb(98,110,134)"/><rect x="43.864" y="128" width="55.869" height="6.667" transform="matrix(1,0,0,1,0,0)" fill="rgb(98,110,134)"/></g></svg>