<?xml version="1.0" standalone="no"?><!-- Generator: Gravit.io --><svg xmlns="http://www.w3.org/2000/svg" xmlns:xlink="http://www.w3.org/1999/xlink" style="isolation:isolate" viewBox="0 0 256 256" width="256" height="256"><defs><clipPath id="_clipPath_bg71FfU5NwBRp1xNEi4JvGeYXyboYCCK"><rect width="256" height="256"/></clipPath></defs><g clip-path="url(#_clipPath_bg71FfU5NwBRp1xNEi4JvGeYXyboYCCK)"><rect x="6.608" y="60.007" width="242.784" height="135.985" transform="matrix(1,0,0,1,0,0)" fill="rgb(14,16,85)"/><rect x="13.746" y="67.684" width="228.509" height="120.632" transform="matrix(1,0,0,1,0,0)" fill="rgb(32,77,191)"/><rect x="13.746" y="67.684" width="11.827" height="120.632" transform="matrix(1,0,0,1,0,0)" fill="rgb(51,102,230)"/><rect x="230.427" y="67.684" width="11.827" height="120.632" transform="matrix(1,0,0,1,0,0)" fill="rgb(23,58,149)"/><path d=" M 13.746 67.684 L 25.573 79.511 L 123.106 79.511 L 123.106 67.684 L 13.746 67.684 Z " fill="rgb(89,128,227)"/><path d=" M 242.254 67.684 L 230.427 79.511 L 83.097 79.511 L 83.097 67.684 L 242.254 67.684 Z " fill="rgb(89,128,227)"/><path d=" M 13.746 188.316 L 25.573 176.489 L 123.106 176.489 L 123.106 188.316 L 13.746 188.316 Z " fill="rgb(22,47,113)"/><path d=" M 242.254 188.316 L 230.427 176.489 L 98.175 176.489 L 98.175 188.316 L 242.254 188.316 Z " fill="rgb(22,47,113)"/><rect x="33.992" y="137.589" width="188.015" height="31.191" transform="matrix(1,0,0,1,0,0)" fill="rgb(14,16,85)"/><rect x="33.992" y="87.258" width="116.355" height="9.416" transform="matrix(1,0,0,1,0,0)" fill="rgb(23,58,149)"/><rect x="33.992" y="99.813" width="78.689" height="6.278" transform="matrix(1,0,0,1,0,0)" fill="rgb(23,58,149)"/><rect x="33.992" y="109.473" width="85.313" height="6.278" transform="matrix(1,0,0,1,0,0)" fill="rgb(23,58,149)"/><rect x="33.992" y="119.134" width="41.842" height="6.278" transform="matrix(1,0,0,1,0,0)" fill="rgb(23,58,149)"/><radialGradient id="_rgradient_0" fx="50%" fy="50%" cx="50%" cy="50%" r="50%"><stop offset="73.04347826086956%" stop-opacity="1" style="stop-color:rgb(40,77,179)"/><stop offset="100%" stop-opacity="1" style="stop-color:rgb(14,35,91)"/></radialGradient><path d=" M 186.129 105.197 C 186.129 95.296 194.167 87.258 204.068 87.258 C 213.969 87.258 222.008 95.296 222.008 105.197 C 222.008 115.098 213.969 123.137 204.068 123.137 C 194.167 123.137 186.129 115.098 186.129 105.197 Z " fill="url(#_rgradient_0)"/><radialGradient id="_rgradient_1" fx="50%" fy="50%" cx="50%" cy="50%" r="50%"><stop offset="53.04347826086957%" stop-opacity="1" style="stop-color:rgb(85,211,253)"/><stop offset="100%" stop-opacity="1" style="stop-color:rgb(46,141,204)"/></radialGradient><path d=" M 191.906 105.197 C 191.906 98.484 197.355 93.034 204.068 93.034 C 210.781 93.034 216.231 98.484 216.231 105.197 C 216.231 111.91 210.781 117.36 204.068 117.36 C 197.355 117.36 191.906 111.91 191.906 105.197 Z " fill="url(#_rgradient_1)"/><path d=" M 195.192 102.833 C 194.175 101.816 194.721 99.617 196.411 97.927 C 198.101 96.237 200.3 95.691 201.317 96.708 C 202.334 97.726 201.788 99.924 200.098 101.614 C 198.408 103.304 196.21 103.85 195.192 102.833 Z " fill="rgb(190,237,253)"/></g></svg>