<?xml version="1.0" standalone="no"?><!-- Generator: Gravit.io --><svg xmlns="http://www.w3.org/2000/svg" xmlns:xlink="http://www.w3.org/1999/xlink" style="isolation:isolate" viewBox="0 0 256 256" width="256" height="256"><defs><clipPath id="_clipPath_3Qt0Qowb1y3KjamCxv91GlxaYStIckwX"><rect width="256" height="256"/></clipPath></defs><g clip-path="url(#_clipPath_3Qt0Qowb1y3KjamCxv91GlxaYStIckwX)"><polygon points="247.272,115.9,220.894,179.583,157.211,205.961,93.529,179.583,67.15,115.9,93.529,52.217,157.211,25.839,220.894,52.217" fill="rgb(42,14,85)"/><polygon points="188.85,140.1,162.471,203.783,98.789,230.161,35.106,203.783,8.728,140.1,35.106,76.417,98.789,50.039,162.471,76.417" fill="rgb(42,14,85)"/><polygon points="181.411,140.1,157.211,198.522,98.789,222.722,40.366,198.522,16.167,140.1,40.366,81.677,98.789,57.478,157.211,81.677" fill="rgb(101,32,191)"/><polygon points="239.833,115.9,215.634,174.323,157.211,198.522,98.789,174.323,74.589,115.9,98.789,57.478,157.211,33.278,215.634,57.478" fill="rgb(101,32,191)"/><path d=" M 157.211 33.278 L 157.211 44.492 L 207.705 65.407 L 215.634 57.478 L 157.211 33.278 Z " fill="rgb(128,57,221)"/><path d=" M 16.167 140.1 L 27.38 140.1 L 48.295 89.606 L 40.366 81.677 L 16.167 140.1 Z " fill="rgb(128,57,221)"/><path d=" M 40.366 81.677 L 48.295 89.606 L 157.211 44.492 L 157.211 33.278 L 40.366 81.677 Z " fill="rgb(172,119,240)"/><path d=" M 98.789 222.722 L 98.789 211.508 L 48.295 190.593 L 40.366 198.522 L 98.789 222.722 Z " fill="rgb(91,34,166)"/><path d=" M 239.833 115.9 L 228.62 115.9 L 207.705 166.394 L 215.634 174.323 L 239.833 115.9 Z " fill="rgb(91,34,166)"/><path d=" M 215.634 174.323 L 207.705 166.394 L 98.789 211.508 L 98.789 222.722 L 215.634 174.323 Z " fill="rgb(60,25,106)"/><path d=" M 50.063 153.329 L 115.585 153.329 L 154.82 114.094 L 219.557 114.094 L 219.557 128.219 L 170.906 128.219 L 124.217 174.908 L 50.063 174.908 L 50.063 153.329 Z " fill="rgb(42,14,85)"/><path d=" M 59.411 117.351 C 59.411 102.543 71.434 90.521 86.242 90.521 C 101.049 90.521 113.072 102.543 113.072 117.351 C 113.072 132.159 101.049 144.181 86.242 144.181 C 71.434 144.181 59.411 132.159 59.411 117.351 Z " fill="rgb(79,27,147)"/><path d=" M 66.04 117.351 C 66.04 106.201 75.092 97.149 86.242 97.149 C 97.391 97.149 106.443 106.201 106.443 117.351 C 106.443 128.5 97.391 137.552 86.242 137.552 C 75.092 137.552 66.04 128.5 66.04 117.351 Z " fill="none" vector-effect="non-scaling-stroke" stroke-width="5" stroke="rgb(101,32,191)" stroke-linejoin="miter" stroke-linecap="square" stroke-miterlimit="3"/><path d=" M 69.717 89.678 C 74.55 86.783 80.203 85.119 86.242 85.119 C 104.031 85.119 118.473 99.561 118.473 117.351 C 118.473 124.287 116.278 130.714 112.545 135.975" fill="none" vector-effect="non-scaling-stroke" stroke-width="3" stroke="rgb(79,27,147)" stroke-linejoin="miter" stroke-linecap="square" stroke-miterlimit="3"/><path d=" M 166.194 78.238 L 123.682 78.238 L 108.185 93.735" fill="none" vector-effect="non-scaling-stroke" stroke-width="3" stroke="rgb(79,27,147)" stroke-linejoin="miter" stroke-linecap="square" stroke-miterlimit="3"/><rect x="129.507" y="66.919" width="52.817" height="7.262" transform="matrix(1,0,0,1,0,0)" fill="rgb(79,27,147)"/><rect x="129.507" y="81.972" width="33.935" height="3.961" transform="matrix(1,0,0,1,0,0)" fill="rgb(79,27,147)"/><rect x="165.687" y="81.972" width="15.185" height="3.961" transform="matrix(1,0,0,1,0,0)" fill="rgb(79,27,147)"/><rect x="182.852" y="81.972" width="33.935" height="3.961" transform="matrix(1,0,0,1,0,0)" fill="rgb(79,27,147)"/></g></svg>