<?xml version="1.0" standalone="no"?><!-- Generator: Gravit.io --><svg xmlns="http://www.w3.org/2000/svg" xmlns:xlink="http://www.w3.org/1999/xlink" style="isolation:isolate" viewBox="0 0 256 256" width="256" height="256"><defs><clipPath id="_clipPath_uNtz5d5vs3l7PgROqJ1R5aKk5XEQe19B"><rect width="256" height="256"/></clipPath></defs><g clip-path="url(#_clipPath_uNtz5d5vs3l7PgROqJ1R5aKk5XEQe19B)"><path d=" M 3.254 78.15 L 47.351 37.247 L 208.649 37.247 L 252.746 78.15 L 252.746 177.85 L 208.649 218.753 L 47.351 218.753 L 3.254 177.85 L 3.254 78.15 Z  M 52.668 99.385 L 202.936 99.385 L 202.936 202.043 L 52.668 202.043 L 52.668 99.385 Z " fill-rule="evenodd" fill="rgb(55,13,13)"/><path d=" M 24.058 114.017 L 60.801 84.861 L 195.199 84.861 L 231.942 114.017 L 231.942 185.083 L 195.199 214.239 L 60.801 214.239 L 24.058 185.083 L 24.058 114.017 Z  M 56.265 101.073 L 199.735 101.073 L 199.735 198.027 L 56.265 198.027 L 56.265 101.073 Z " fill-rule="evenodd" fill="rgb(147,59,59)"/><radialGradient id="_rgradient_8" fx="50%" fy="50%" cx="50%" cy="50%" r="50%" gradientTransform="matrix(2.0728744939271255 0.00404858299595211 0 1 -0.04493927125506049 -0.0020242914979760555)"><stop offset="0%" stop-opacity="1" style="stop-color:rgb(204,55,55)"/><stop offset="100%" stop-opacity="1" style="stop-color:rgb(132,15,15)"/></radialGradient><path d=" M 56.265 198.027 C 29.51 198.027 7.788 176.305 7.788 149.55 C 7.788 122.794 29.51 101.073 56.265 101.073 L 56.265 149.55 L 56.265 198.027 Z " fill="url(#_rgradient_8)"/><radialGradient id="_rgradient_9" fx="50%" fy="50%" cx="50%" cy="50%" r="50%" gradientTransform="matrix(2.153846153846154 0.012145748987854386 0 1 -1.0732793522267206 -0.00607287449392719)"><stop offset="0%" stop-opacity="1" style="stop-color:rgb(204,55,55)"/><stop offset="100%" stop-opacity="1" style="stop-color:rgb(132,15,15)"/></radialGradient><path d=" M 199.735 101.073 C 226.49 101.073 248.212 122.794 248.212 149.55 C 248.212 176.305 226.49 198.027 199.735 198.027 L 199.735 149.55 L 199.735 101.073 Z " fill="url(#_rgradient_9)"/><radialGradient id="_rgradient_10" fx="50%" fy="50%" cx="50%" cy="50%" r="50%" gradientTransform="matrix(2.0728744939271255 0.00404858299595211 0 1 -0.04493927125506049 -0.0020242914979760555)"><stop offset="0%" stop-opacity="1" style="stop-color:rgb(204,55,55)"/><stop offset="100%" stop-opacity="1" style="stop-color:rgb(132,15,15)"/></radialGradient><path d=" M 56.265 78.15 C 46.217 78.15 38.058 69.992 38.058 59.943 C 38.058 49.894 46.217 41.736 56.265 41.736 L 56.265 59.943 L 56.265 78.15 Z " fill="url(#_rgradient_10)"/><radialGradient id="_rgradient_11" fx="50%" fy="50%" cx="50%" cy="50%" r="50%" gradientTransform="matrix(2.153846153846154 0.012145748987854386 0 1 -1.0732793522267206 -0.00607287449392719)"><stop offset="0%" stop-opacity="1" style="stop-color:rgb(204,55,55)"/><stop offset="100%" stop-opacity="1" style="stop-color:rgb(132,15,15)"/></radialGradient><path d=" M 199.735 41.736 C 209.783 41.736 217.942 49.894 217.942 59.943 C 217.942 69.992 209.783 78.15 199.735 78.15 L 199.735 59.943 L 199.735 41.736 Z " fill="url(#_rgradient_11)"/><path d=" M 128 172.905 C 128 172.905 128 172.905 128 172.905 C 111.557 188.669 87.634 197.031 56.265 198.027 L 128 198.027 C 128 198.027 128 198.027 128 198.027 L 199.735 198.027 C 168.366 197.031 144.443 188.669 128 172.905 L 128 172.905 Z " fill="rgb(147,59,59)"/><path d=" M 128 126.194 C 128 126.194 128 126.194 128 126.194 C 144.443 110.431 168.366 102.068 199.735 101.073 L 128 101.073 L 128 101.073 L 56.265 101.073 C 87.634 102.068 111.557 110.431 128 126.194 Z " fill="rgb(147,59,59)"/><rect x="56.265" y="41.736" width="143.469" height="36.414" transform="matrix(1,0,0,1,0,0)" fill="rgb(89,24,24)"/></g></svg>