<?xml version="1.0" standalone="no"?><!-- Generator: Gravit.io --><svg xmlns="http://www.w3.org/2000/svg" xmlns:xlink="http://www.w3.org/1999/xlink" style="isolation:isolate" viewBox="-6 324.462 92 92" width="92" height="92"><defs><linearGradient id="_lgradient_1" x1="1" y1="0.023076923076923855" x2="1" y2="0.9914883932635403"><stop offset="1.3043478260869565%" style="stop-color:#8D6FDF"/><stop offset="30%" style="stop-color:#7359BD"/><stop offset="74.78260869565217%" style="stop-color:#7359BD"/><stop offset="99.1304347826087%" style="stop-color:#634BA8"/></linearGradient></defs><path d="M 16.8 330.462 L 63.2 330.462 C 72.472 330.462 80 337.989 80 347.262 L 80 393.662 C 80 402.934 72.472 410.462 63.2 410.462 L 16.8 410.462 C 7.528 410.462 0 402.934 0 393.662 L 0 347.262 C 0 337.989 7.528 330.462 16.8 330.462 Z" style="stroke:none;fill:url(#_lgradient_1);stroke-miterlimit:10;"/><clipPath id="_clipPath_Y9bVy8VgpHS9u34zuEtlrxCrwspbbtPh"><path d="M 16.8 330.462 L 63.2 330.462 C 72.472 330.462 80 337.989 80 347.262 L 80 393.662 C 80 402.934 72.472 410.462 63.2 410.462 L 16.8 410.462 C 7.528 410.462 0 402.934 0 393.662 L 0 347.262 C 0 337.989 7.528 330.462 16.8 330.462 Z" style="stroke:black;fill:white;stroke-miterlimit:10;"/></clipPath><g clip-path="url(#_clipPath_Y9bVy8VgpHS9u34zuEtlrxCrwspbbtPh)"><path d=" M 15 390.462 L 5 410.962 L -6 410.962 L 4 390.462 L 4 350.462 L -6 329.962 L 5 329.962 L 15 350.462 L 15 390.462 Z " fill="rgb(159,138,215)"/><path d=" M 30 390.462 L 20 410.962 L 9 410.962 L 19 390.462 L 19 350.462 L 9 329.962 L 20 329.962 L 30 350.462 L 30 390.462 Z " fill="rgb(159,138,215)"/><path d=" M 65 390.462 L 75 410.962 L 86 410.962 L 76 390.462 L 76 350.462 L 86 329.962 L 75 329.962 L 65 350.462 L 65 390.462 Z " fill="rgb(159,138,215)"/><path d=" M 50 390.462 L 60 410.962 L 71 410.962 L 61 390.462 L 61 350.462 L 71 329.962 L 60 329.962 L 50 350.462 L 50 390.462 Z " fill="rgb(159,138,215)"/></g><path d="M 16.8 330.462 L 63.2 330.462 C 72.472 330.462 80 337.989 80 347.262 L 80 393.662 C 80 402.934 72.472 410.462 63.2 410.462 L 16.8 410.462 C 7.528 410.462 0 402.934 0 393.662 L 0 347.262 C 0 337.989 7.528 330.462 16.8 330.462 Z" style="fill:none;stroke:#432793;stroke-width:4;stroke-linecap:square;stroke-miterlimit:3;"/></svg>