<?xml version="1.0" standalone="no"?><!-- Generator: Gravit.io --><svg xmlns="http://www.w3.org/2000/svg" xmlns:xlink="http://www.w3.org/1999/xlink" style="isolation:isolate" viewBox="0 0 512 256" width="512" height="256"><defs><clipPath id="_clipPath_H2sjKpAvhqmZPHzkUCPTkJ9zQb9DxoGR"><rect width="512" height="256"/></clipPath></defs><g clip-path="url(#_clipPath_H2sjKpAvhqmZPHzkUCPTkJ9zQb9DxoGR)"><defs><linearGradient id="_lgradient_7" x1="0.4999999999999999" y1="0" x2="0.49999999999999994" y2="1"><stop offset="0%" style="stop-color:#8D6FDF"/><stop offset="97.82608695652173%" style="stop-color:#6148A6"/></linearGradient></defs><path d="M 88.325 30.5 L 423.675 30.5 C 459.729 30.5 489 59.771 489 95.825 L 489 160.175 C 489 196.229 459.729 225.5 423.675 225.5 L 88.325 225.5 C 52.271 225.5 23 196.229 23 160.175 L 23 95.825 C 23 59.771 52.271 30.5 88.325 30.5 Z" style="stroke:none;fill:url(#_lgradient_7);stroke-miterlimit:10;"/><path d="M 88.325 30.5 L 423.675 30.5 C 459.729 30.5 489 59.771 489 95.825 L 489 160.175 C 489 196.229 459.729 225.5 423.675 225.5 L 88.325 225.5 C 52.271 225.5 23 196.229 23 160.175 L 23 95.825 C 23 59.771 52.271 30.5 88.325 30.5 Z" style="fill:none;stroke:#432793;stroke-width:5;stroke-linecap:square;stroke-miterlimit:3;"/><path d=" M 61.885 220.473 L 112.157 128 L 77.364 128 L 37.389 201.533 L 61.885 220.473 Z  M 62.165 36.041 L 112.157 128 L 77.364 128 L 37.913 55.431 L 62.165 36.041 Z " fill="rgb(178,167,208)" fill-opacity="0.5"/><path d=" M 167.652 128 L 113.288 28 L 78.494 28 L 132.859 128 L 78.494 228 L 113.288 228 L 167.652 128 L 167.652 128 L 167.652 128 L 167.652 128 L 167.652 128 Z " fill="rgb(178,167,208)" fill-opacity="0.5"/><path d=" M 399.843 128 L 450.017 35.707 L 474.624 54.444 L 434.636 128 L 474.841 201.956 L 450.224 220.673 L 399.843 128 L 399.843 128 L 399.843 128 L 399.843 128 L 399.843 128 Z " fill="rgb(178,167,208)" fill-opacity="0.5"/><path d=" M 344.348 128 L 398.712 28 L 433.506 28 L 379.141 128 L 433.506 228 L 398.712 228 L 344.348 128 L 344.348 128 L 344.348 128 L 344.348 128 L 344.348 128 Z " fill="rgb(178,167,208)" fill-opacity="0.5"/><path d="M 88.325 30.5 L 423.675 30.5 C 459.729 30.5 489 59.771 489 95.825 L 489 160.175 C 489 196.229 459.729 225.5 423.675 225.5 L 88.325 225.5 C 52.271 225.5 23 196.229 23 160.175 L 23 95.825 C 23 59.771 52.271 30.5 88.325 30.5 Z" style="fill:none;stroke:#432793;stroke-width:5;stroke-linecap:square;stroke-miterlimit:3;"/></g></svg>