<?xml version="1.0" standalone="no"?><!-- Generator: Gravit.io --><svg xmlns="http://www.w3.org/2000/svg" xmlns:xlink="http://www.w3.org/1999/xlink" style="isolation:isolate" viewBox="0 0 512 256" width="512" height="256"><defs><clipPath id="_clipPath_3gRJPkNfPvXF8O1sj58Ht1sbO4eQ3CIv"><rect width="512" height="256"/></clipPath></defs><g clip-path="url(#_clipPath_3gRJPkNfPvXF8O1sj58Ht1sbO4eQ3CIv)"><defs><linearGradient id="_lgradient_10" x1="0.4999999999999999" y1="1" x2="0.49999999999999994" y2="0"><stop offset="0%" style="stop-color:#8D6FDF"/><stop offset="97.82608695652173%" style="stop-color:#6148A6"/></linearGradient></defs><path d="M 88.325 30.5 L 423.675 30.5 C 459.729 30.5 489 59.771 489 95.825 L 489 160.175 C 489 196.229 459.729 225.5 423.675 225.5 L 88.325 225.5 C 52.271 225.5 23 196.229 23 160.175 L 23 95.825 C 23 59.771 52.271 30.5 88.325 30.5 Z" style="stroke:none;fill:url(#_lgradient_10);stroke-miterlimit:10;"/><path d="M 88.325 30.5 L 423.675 30.5 C 459.729 30.5 489 59.771 489 95.825 L 489 160.175 C 489 196.229 459.729 225.5 423.675 225.5 L 88.325 225.5 C 52.271 225.5 23 196.229 23 160.175 L 23 95.825 C 23 59.771 52.271 30.5 88.325 30.5 Z" style="fill:none;stroke:#432793;stroke-width:5;stroke-linecap:square;stroke-miterlimit:3;"/><path d=" M 68.269 220.473 L 131.643 128 L 87.782 128 L 37.389 201.533 C 47.101 213.022 57.404 219.345 68.269 220.473 Z  M 68.622 36.041 L 131.643 128 L 87.782 128 L 38.049 55.431 C 45.126 45.053 55.327 38.6 68.622 36.041 Z " fill="rgb(178,167,208)" fill-opacity="0.65"/><path d=" M 201.6 128 L 133.068 28 L 89.207 28 L 157.739 128 L 89.207 228 L 133.068 228 L 201.6 128 L 201.6 128 L 201.6 128 L 201.6 128 L 201.6 128 Z " fill="rgb(178,167,208)" fill-opacity="0.65"/><path d=" M 380.357 128 L 443.378 36.041 C 456.673 38.6 466.874 45.053 473.951 55.431 L 424.218 128 L 474.611 201.533 C 464.899 213.022 454.596 219.345 443.731 220.473 L 380.357 128 L 380.357 128 L 380.357 128 L 380.357 128 L 380.357 128 Z " fill="rgb(178,167,208)" fill-opacity="0.65"/><path d=" M 310.4 128 L 378.932 28 L 422.793 28 L 354.261 128 L 422.793 228 L 378.932 228 L 310.4 128 L 310.4 128 L 310.4 128 L 310.4 128 L 310.4 128 Z " fill="rgb(178,167,208)" fill-opacity="0.65"/><path d="M 88.325 30.5 L 423.675 30.5 C 459.729 30.5 489 59.771 489 95.825 L 489 160.175 C 489 196.229 459.729 225.5 423.675 225.5 L 88.325 225.5 C 52.271 225.5 23 196.229 23 160.175 L 23 95.825 C 23 59.771 52.271 30.5 88.325 30.5 Z" style="fill:none;stroke:#432793;stroke-width:5;stroke-linecap:square;stroke-miterlimit:3;"/></g></svg>